HIERARCHY
ROOT Hips
{
	OFFSET -3.958830 18.904000 13.208200
	CHANNELS 6 Xposition Yposition Zposition Zrotation Yrotation Xrotation 
	JOINT LHipJoint
	{
		OFFSET 0.000000 0.000000 0.000000
		CHANNELS 3 Zrotation Yrotation Xrotation
		JOINT LeftUpLeg
		{
			OFFSET 1.800000 -1.400000 0.085000
			CHANNELS 3 Zrotation Yrotation Xrotation
			JOINT LeftLeg
			{
				OFFSET 2.215000 -6.000000 0.000000
				CHANNELS 3 Zrotation Yrotation Xrotation
				JOINT LeftFoot
				{
					OFFSET 2.500000 -6.900000 0.000000
					CHANNELS 3 Zrotation Yrotation Xrotation
					JOINT LeftToeBase
					{
						OFFSET 0.200000 -0.500000 1.950000
						CHANNELS 3 Zrotation Yrotation Xrotation
						End Site
						{
							OFFSET 0.000000 0.000000 0.000000
						}
					}
				}
			}
		}
	}
	JOINT RHipJoint
	{
		OFFSET 0.000000 0.000000 0.000000
		CHANNELS 3 Zrotation Yrotation Xrotation
		JOINT RightUpLeg
		{
			OFFSET -1.800000 -1.400000 0.085000
			CHANNELS 3 Zrotation Yrotation Xrotation
			JOINT RightLeg
			{
				OFFSET -2.215000 -6.000000 0.000000
				CHANNELS 3 Zrotation Yrotation Xrotation
				JOINT RightFoot
				{
					OFFSET -2.500000 -6.900000 0.000000
					CHANNELS 3 Zrotation Yrotation Xrotation
					JOINT RightToeBase
					{
						OFFSET -0.200000 -0.500000 1.950000
						CHANNELS 3 Zrotation Yrotation Xrotation
						End Site
						{
							OFFSET 0.000000 0.000000 0.000000
						}
					}
				}
			}
		}
	}
	JOINT LowerBack
	{
		OFFSET 0.000000 0.000000 0.000000
		CHANNELS 3 Zrotation Yrotation Xrotation
		JOINT Spine
		{
			OFFSET -0.087000 1.940000 -0.288900
			CHANNELS 3 Zrotation Yrotation Xrotation
			JOINT Spine1
			{
				OFFSET 0.000000 1.950000 0.060000
				CHANNELS 3 Zrotation Yrotation Xrotation
				JOINT Neck
				{
					OFFSET 0.000000 0.000000 0.000000
					CHANNELS 3 Zrotation Yrotation Xrotation
					JOINT Neck1
					{
						OFFSET 0.000000 1.600000 0.340000
						CHANNELS 3 Zrotation Yrotation Xrotation
						JOINT Head
						{
							OFFSET 0.000000 1.667000 -0.240000
							CHANNELS 3 Zrotation Yrotation Xrotation
							End Site
							{
								OFFSET 0.000000 0.000000 0.000000
							}
						}
					}
				}
				JOINT LeftShoulder
				{
					OFFSET 0.000000 0.000000 0.000000
					CHANNELS 3 Zrotation Yrotation Xrotation
					JOINT LeftArm
					{
						OFFSET 2.700000 1.550000 -0.730000
						CHANNELS 3 Zrotation Yrotation Xrotation
						JOINT LeftForeArm
						{
							OFFSET 5.450000 0.000000 0.000000
							CHANNELS 3 Zrotation Yrotation Xrotation
							JOINT LeftHand
							{
								OFFSET 3.450000 0.000000 0.000000
								CHANNELS 3 Zrotation Yrotation Xrotation
								JOINT LeftHandIndex1
								{
									OFFSET 0.750000 0.000000 0.000000
									CHANNELS 3 Zrotation Yrotation Xrotation
									End Site
									{
										OFFSET 0.000000 0.000000 0.000000
									}
								}
							}
						}
					}
				}
				JOINT RightShoulder
				{
					OFFSET 0.000000 0.000000 0.000000
					CHANNELS 3 Zrotation Yrotation Xrotation
					JOINT RightArm
					{
						OFFSET -2.700000 1.550000 -0.730000
						CHANNELS 3 Zrotation Yrotation Xrotation
						JOINT RightForeArm
						{
							OFFSET -5.450000 0.000000 0.000000
							CHANNELS 3 Zrotation Yrotation Xrotation
							JOINT RightHand
							{
								OFFSET -3.450000 0.000000 0.000000
								CHANNELS 3 Zrotation Yrotation Xrotation
								JOINT RightHandIndex1
								{
									OFFSET -0.750000 0.000000 0.000000
									CHANNELS 3 Zrotation Yrotation Xrotation
									End Site
									{
										OFFSET 0.000000 0.000000 0.000000
									}
								}
							}
						}
					}
				}
			}
		}
	}
}
MOTION
Frames: 11
Frame Time: 0.016667
-0.878670 17.636140 1.938220 -4.630197 27.866403 -5.300134 -15.256427 14.109341 2.835428 17.451194 -4.158525 -6.450675 -7.499759 10.992978 34.833703 0.000453 8.184355 1.715056 -0.532610 -0.805240 -0.500590 18.012403 -10.229766 3.430394 -5.427837 2.846386 -39.222975 -0.073433 -7.010784 35.856369 -0.209981 -4.295421 2.728665 -0.440010 0.577190 0.093070 -3.776076 -3.406261 -8.300131 10.456360 -12.479134 44.886573 -9.884815 -7.418305 -7.116282 5.225096 -4.284812 -8.900235 -13.902955 -0.823019 45.039540 8.925820 -10.018380 -14.369580 -18.298034 -1.673044 -1.013163 -40.095193 -12.505720 -7.523635 53.312664 -56.033827 -28.908139 -3.627200 1.866367 0.804670 0.013060 -0.069820 -0.063270 7.683249 2.869066 7.719197 43.803805 -13.107234 -19.497087 -45.883229 48.031668 -16.467096 1.751081 -0.647318 -0.522180 0.535760 0.693030 -0.061520 
-0.881720 17.632970 1.947230 -4.607852 27.969753 -4.867335 -15.247021 14.032626 2.842009 17.714051 -4.140570 -6.669987 -8.034242 11.181201 34.534278 0.019918 8.200220 1.712109 -0.539000 -0.810980 -0.512850 18.039037 -10.176648 3.472446 -5.415678 3.031298 -39.794576 -0.070573 -7.064427 36.183756 -0.214822 -4.347387 2.716883 -0.450000 0.579980 0.092610 -3.820918 -3.355387 -8.318398 11.006081 -12.832633 44.821383 -10.223977 -7.605928 -7.096447 5.232398 -4.709225 -9.062314 -14.560637 -0.757188 44.165566 8.969900 -10.092370 -14.516630 -17.759193 -1.433717 -0.815183 -41.306001 -12.282150 -7.728493 54.625435 -57.103736 -30.394832 -3.606540 1.833891 0.796390 0.012900 -0.075350 -0.059540 7.078468 2.973284 7.775830 45.031777 -12.672570 -19.885569 -45.727964 48.968912 -16.769773 1.735037 -0.638686 -0.515420 0.529170 0.692180 -0.054930 
-0.882560 17.627460 1.964590 -4.481827 28.147402 -4.227062 -15.210585 13.874400 2.830550 18.110901 -4.066400 -6.779537 -8.850757 11.438907 33.900685 0.028493 8.220707 1.707790 -0.573750 -0.842490 -0.550740 18.103547 -10.137999 3.529836 -5.771743 3.217060 -40.614103 0.233373 -7.283564 36.673251 -0.214712 -4.457793 2.687577 -0.468640 0.601850 0.084260 -3.962753 -3.138916 -8.332583 12.293084 -13.553150 44.548181 -11.078745 -8.018524 -6.705409 5.024513 -5.414882 -9.391986 -15.713178 -0.497370 42.977859 9.642950 -10.291380 -15.075450 -16.534438 -1.280737 -0.303561 -43.071457 -11.751918 -8.328778 55.626820 -59.588503 -32.748957 -3.580891 1.747156 0.793820 0.017800 -0.089570 -0.064420 6.171019 3.228276 7.811657 47.671487 -11.744624 -20.728301 -47.530571 50.104772 -18.118021 1.701670 -0.584282 -0.525550 0.540000 0.713070 -0.044780 
-0.876950 17.607150 1.988360 -4.499731 28.731544 -3.136538 -15.181521 13.689432 2.829765 18.548561 -4.161580 -7.667475 -9.534893 11.694413 33.730559 0.025473 8.289208 1.701075 -0.633900 -0.914070 -0.585690 18.169739 -10.055769 3.615495 -6.149707 3.411951 -41.893831 0.592075 -7.601297 37.208916 -0.201833 -4.586636 2.659630 -0.499350 0.648240 0.055680 -4.099779 -2.954924 -8.360682 14.048154 -14.589376 43.807691 -12.084426 -8.545950 -6.899800 5.006737 -5.977569 -9.565749 -16.339664 -0.428860 41.453351 9.632160 -10.351040 -14.674700 -15.101704 -0.332418 0.075523 -45.349671 -11.078479 -8.553085 58.217630 -62.085167 -36.033937 -3.564535 1.586574 0.789120 0.035880 -0.126990 -0.071500 4.619104 2.669492 7.699036 50.399773 -10.477604 -21.064956 -47.858602 51.008437 -18.522065 1.689294 -0.539424 -0.567170 0.575930 0.741650 -0.042880 
-0.874450 17.575550 2.015080 -4.236041 29.416342 -1.891510 -15.162892 13.528460 2.815323 18.554565 -4.287785 -8.710624 -9.815740 11.802196 33.914117 0.021920 8.304051 1.687573 -0.665190 -0.948270 -0.609740 18.223518 -9.969257 3.719805 -6.980044 3.462167 -43.308102 1.337134 -8.108025 37.788830 -0.202644 -4.777493 2.596440 -0.515260 0.659520 0.044410 -4.203924 -2.812209 -8.391495 15.370193 -15.343711 42.909757 -12.902756 -8.950847 -6.800650 5.031123 -6.159487 -9.773371 -16.236707 -0.394802 40.251690 9.497320 -10.082200 -14.191700 -13.632403 0.371168 0.593345 -47.553903 -10.378688 -8.697018 63.586679 -63.357477 -40.675509 -3.546452 1.418976 0.775060 0.047060 -0.150870 -0.081400 2.971916 2.132249 7.564008 52.888589 -9.195060 -21.143337 -47.643142 50.853042 -18.283283 1.703469 -0.551745 -0.577830 0.571000 0.758350 -0.045060 
-0.872270 17.550410 2.025890 -4.276573 29.925628 -0.838047 -15.133188 13.333725 2.797587 18.757318 -4.426915 -9.858197 -10.059951 11.917345 34.236252 0.035742 8.327619 1.676417 -0.687380 -0.958750 -0.631790 18.294575 -9.886179 3.826881 -7.572241 3.587236 -44.713789 2.010754 -8.576454 38.241356 -0.210124 -4.937145 2.546591 -0.526130 0.672390 0.032980 -4.339967 -2.594275 -8.409359 17.322746 -16.396037 42.287825 -14.236079 -9.357483 -6.602524 5.139911 -6.521568 -9.957206 -16.436802 -0.581227 38.641930 9.495330 -10.021120 -14.367200 -11.727967 1.125982 1.049803 -49.718726 -10.255493 -8.394560 69.601459 -62.747219 -44.903635 -3.555195 1.292554 0.754170 0.054810 -0.165050 -0.084090 0.703744 1.665706 7.447816 55.751482 -7.776944 -20.957017 -46.623287 48.977089 -16.945325 1.767857 -0.608276 -0.577370 0.573640 0.762700 -0.033830 
-0.877240 17.530360 2.032960 -4.421437 30.193389 0.162925 -15.122282 13.160729 2.823600 19.044151 -4.665087 -11.266503 -10.375201 12.125192 34.902001 0.062922 8.416930 1.634321 -0.699080 -0.958430 -0.652460 18.345469 -9.757597 3.932196 -8.021860 3.792314 -45.927406 2.992591 -9.060038 38.347888 -0.217882 -5.054486 2.508061 -0.530640 0.676130 0.029800 -4.401776 -2.496811 -8.446635 18.790713 -17.227154 42.017664 -15.249884 -9.519071 -6.562705 5.391515 -6.710055 -10.243126 -16.406578 -0.670386 37.291830 9.326010 -9.814710 -14.085850 -10.031855 1.465277 1.498166 -51.449389 -10.361916 -7.773101 75.407392 -59.925325 -47.872614 -3.615047 1.331678 0.731410 0.061570 -0.173560 -0.080910 -1.549888 1.573820 7.473730 58.142331 -6.807139 -20.775312 -45.834219 46.697904 -15.617368 1.838372 -0.683450 -0.568830 0.563300 0.762030 -0.023580 
-0.891790 17.515780 2.031140 -4.558541 30.156058 0.805870 -15.113699 13.035037 2.843082 19.276927 -4.854227 -12.314575 -10.477075 12.232676 35.535614 0.082805 8.480858 1.599840 -0.692520 -0.937220 -0.658840 18.385230 -9.663832 4.006810 -8.016289 4.066427 -46.836177 3.232264 -9.185439 38.456697 -0.231255 -5.088065 2.494723 -0.527870 0.667740 0.033890 -4.441871 -2.423574 -8.465806 19.723660 -18.018448 42.383610 -15.928476 -9.719887 -6.302504 5.560082 -6.963450 -10.562526 -16.624723 -0.632271 36.204855 9.089160 -9.470300 -14.641830 -8.278836 1.362730 1.972922 -52.615417 -10.395374 -7.722979 78.288047 -56.267491 -48.190685 -3.677611 1.507648 0.722890 0.056990 -0.165190 -0.076210 -3.621389 1.875951 7.488706 60.467018 -5.707565 -20.762476 -46.676228 44.275421 -15.083757 1.908614 -0.745853 -0.552760 0.554190 0.754760 -0.014480 
-0.915300 17.504220 2.024580 -4.373715 29.965794 1.462608 -15.118693 12.957729 2.856979 19.155454 -5.098218 -13.269858 -10.291195 12.249241 36.404018 0.093428 8.550365 1.577697 -0.682670 -0.924990 -0.654470 18.405341 -9.560550 4.098336 -8.129113 4.292494 -47.886480 3.235001 -9.261168 38.908936 -0.250562 -5.168701 2.469321 -0.521750 0.667750 0.034170 -4.427791 -2.443727 -8.501566 19.667947 -18.327427 43.238109 -15.925278 -9.766885 -6.269131 5.626831 -7.014858 -10.809029 -16.550277 -0.660208 35.445815 8.581790 -9.170090 -14.673000 -7.513456 0.698519 2.207279 -52.174519 -10.296743 -7.978206 78.993966 -52.145847 -46.063408 -3.728266 1.703010 0.720520 0.057850 -0.162300 -0.064370 -4.456922 2.605364 7.625202 61.556635 -5.332588 -20.867025 -48.205851 42.655332 -15.176941 1.941317 -0.784112 -0.551090 0.557890 0.744260 -0.012850 
-0.938030 17.495090 2.010370 -4.252847 29.813696 1.813781 -15.104519 12.880206 2.843033 19.010575 -5.383157 -13.886133 -9.831249 12.121706 37.295653 0.118214 8.559463 1.583338 -0.649390 -0.866070 -0.642790 18.436267 -9.543268 4.147385 -8.176213 4.325688 -48.528936 3.374987 -9.296923 39.001508 -0.269018 -5.193272 2.464727 -0.496030 0.660510 0.019210 -4.473430 -2.333812 -8.506579 19.786604 -18.813817 43.868849 -16.031658 -10.021963 -5.582732 5.462079 -6.957555 -11.020741 -16.368880 -0.565004 35.049528 8.419610 -8.917340 -14.699410 -7.211747 -0.825917 2.412924 -49.962507 -10.346867 -8.640113 76.441878 -47.732826 -41.068867 -3.740515 1.898668 0.701200 0.050300 -0.152340 -0.040310 -4.399882 3.858740 7.862507 62.070453 -5.148191 -21.174342 -50.961667 41.550761 -16.236701 1.962473 -0.817938 -0.535390 0.569710 0.709040 0.002650 
-0.957430 17.492540 1.996280 -4.230763 29.510922 1.674643 -15.092364 12.860514 2.818660 19.003688 -5.623704 -13.935633 -9.254513 11.940930 38.106573 0.104938 8.591621 1.556566 -0.604050 -0.811140 -0.607590 18.450634 -9.579706 4.144148 -7.861346 4.408465 -48.508130 3.157996 -9.110827 38.975534 -0.282284 -5.147950 2.462417 -0.461740 0.635270 0.028350 -4.502423 -2.235959 -8.487914 19.641657 -19.087074 44.692180 -15.843768 -10.083115 -4.181729 5.220696 -6.716364 -11.201361 -15.943345 -0.464011 35.020644 8.113360 -8.499090 -15.634130 -7.860553 -3.475014 2.582636 -45.712806 -10.104061 -9.638035 70.617476 -43.238565 -34.174593 -3.752185 2.070294 0.706150 0.037430 -0.130810 -0.038590 -3.225645 5.978543 8.196614 61.194694 -5.191186 -21.460409 -53.967603 39.441362 -17.173301 1.972643 -0.856986 -0.520310 0.568040 0.690970 -0.001080 
